<?xml version="1.0" encoding="UTF-8"?>
<!DOCTYPE svg
PUBLIC "-//W3C//DTD SVG 1.1//EN"
       "http://www.w3.org/Graphics/SVG/1.1/DTD/svg11.dtd">
<svg viewBox="36 -7 1174 884" width="1138px" height="891px" xmlns="http://www.w3.org/2000/svg" version="1.1">
   <line x1="139" y1="77" x2="149" y2="77" style="stroke:#cb0;stroke-width:1;"/>
   <line x1="625" y1="329" x2="635" y2="329" style="stroke:#cb0;stroke-width:1;"/>
   <line x1="149" y1="77" x2="625" y2="329" style="stroke:#cb0;stroke-width:1;"/>
   <line x1="146.5" y1="77" x2="142.96446609407" y2="80.535533905933" style="stroke:#cb0;stroke-width:2;"/>
   <line x1="146.5" y1="77" x2="142.96446609407" y2="73.464466094067" style="stroke:#cb0;stroke-width:2;"/>
   <line x1="630" y1="329" x2="626.46446609407" y2="332.53553390593" style="stroke:#cb0;stroke-width:2;"/>
   <line x1="630" y1="329" x2="626.46446609407" y2="325.46446609407" style="stroke:#cb0;stroke-width:2;"/>
   <line x1="139" y1="97" x2="149" y2="97" style="stroke:#b0b;stroke-width:1;"/>
   <line x1="155" y1="528" x2="145" y2="528" style="stroke:#b0b;stroke-width:1;"/>
   <line x1="149" y1="97" x2="155" y2="528" style="stroke:#b0b;stroke-width:1;"/>
   <line x1="146.5" y1="97" x2="142.96446609407" y2="100.53553390593" style="stroke:#b0b;stroke-width:2;"/>
   <line x1="146.5" y1="97" x2="142.96446609407" y2="93.464466094067" style="stroke:#b0b;stroke-width:2;"/>
   <line x1="150" y1="528" x2="153.53553390593" y2="531.53553390593" style="stroke:#b0b;stroke-width:2;"/>
   <line x1="150" y1="528" x2="153.53553390593" y2="524.46446609407" style="stroke:#b0b;stroke-width:2;"/>
   <line x1="726" y1="349" x2="736" y2="349" style="stroke:#0b0;stroke-width:1;"/>
   <line x1="1071" y1="275" x2="1081" y2="275" style="stroke:#0b0;stroke-width:1;"/>
   <line x1="736" y1="349" x2="1071" y2="275" style="stroke:#0b0;stroke-width:1;"/>
   <line x1="733.5" y1="349" x2="729.96446609407" y2="352.53553390593" style="stroke:#0b0;stroke-width:2;"/>
   <line x1="733.5" y1="349" x2="729.96446609407" y2="345.46446609407" style="stroke:#0b0;stroke-width:2;"/>
   <line x1="1076" y1="275" x2="1072.4644660941" y2="278.53553390593" style="stroke:#0b0;stroke-width:2;"/>
   <line x1="1076" y1="275" x2="1072.4644660941" y2="271.46446609407" style="stroke:#0b0;stroke-width:2;"/>
   <line x1="688" y1="733" x2="698" y2="733" style="stroke:#333;stroke-width:1;"/>
   <line x1="736" y1="329" x2="726" y2="329" style="stroke:#333;stroke-width:1;"/>
   <line x1="698" y1="733" x2="736" y2="329" style="stroke:#333;stroke-width:1;"/>
   <line x1="695.5" y1="733" x2="691.96446609407" y2="736.53553390593" style="stroke:#333;stroke-width:2;"/>
   <line x1="695.5" y1="733" x2="691.96446609407" y2="729.46446609407" style="stroke:#333;stroke-width:2;"/>
   <line x1="731" y1="329" x2="734.53553390593" y2="332.53553390593" style="stroke:#333;stroke-width:2;"/>
   <line x1="731" y1="329" x2="734.53553390593" y2="325.46446609407" style="stroke:#333;stroke-width:2;"/>
   <line x1="688" y1="773" x2="698" y2="773" style="stroke:#0bf;stroke-width:1;"/>
   <line x1="993" y1="78" x2="1003" y2="78" style="stroke:#0bf;stroke-width:1;"/>
   <line x1="698" y1="773" x2="993" y2="78" style="stroke:#0bf;stroke-width:1;"/>
   <line x1="695.5" y1="773" x2="691.96446609407" y2="776.53553390593" style="stroke:#0bf;stroke-width:2;"/>
   <line x1="695.5" y1="773" x2="691.96446609407" y2="769.46446609407" style="stroke:#0bf;stroke-width:2;"/>
   <line x1="998" y1="78" x2="994.46446609407" y2="81.535533905933" style="stroke:#0bf;stroke-width:2;"/>
   <line x1="998" y1="78" x2="994.46446609407" y2="74.464466094067" style="stroke:#0bf;stroke-width:2;"/>
   <line x1="688" y1="753" x2="698" y2="753" style="stroke:#b0b;stroke-width:1;"/>
   <line x1="953" y1="679" x2="963" y2="679" style="stroke:#b0b;stroke-width:1;"/>
   <line x1="698" y1="753" x2="953" y2="679" style="stroke:#b0b;stroke-width:1;"/>
   <line x1="695.5" y1="753" x2="691.96446609407" y2="756.53553390593" style="stroke:#b0b;stroke-width:2;"/>
   <line x1="695.5" y1="753" x2="691.96446609407" y2="749.46446609407" style="stroke:#b0b;stroke-width:2;"/>
   <line x1="958" y1="679" x2="954.46446609407" y2="682.53553390593" style="stroke:#b0b;stroke-width:2;"/>
   <line x1="958" y1="679" x2="954.46446609407" y2="675.46446609407" style="stroke:#b0b;stroke-width:2;"/>
   <line x1="688" y1="793" x2="698" y2="793" style="stroke:#0b0;stroke-width:1;"/>
   <line x1="1077" y1="454" x2="1087" y2="454" style="stroke:#0b0;stroke-width:1;"/>
   <line x1="698" y1="793" x2="1077" y2="454" style="stroke:#0b0;stroke-width:1;"/>
   <line x1="695.5" y1="793" x2="691.96446609407" y2="796.53553390593" style="stroke:#0b0;stroke-width:2;"/>
   <line x1="695.5" y1="793" x2="691.96446609407" y2="789.46446609407" style="stroke:#0b0;stroke-width:2;"/>
   <line x1="1082" y1="454" x2="1078.4644660941" y2="457.53553390593" style="stroke:#0b0;stroke-width:2;"/>
   <line x1="1082" y1="454" x2="1078.4644660941" y2="450.46446609407" style="stroke:#0b0;stroke-width:2;"/>
   <line x1="694" y1="58" x2="684" y2="58" style="stroke:#bbb;stroke-width:1;"/>
   <line x1="736" y1="329" x2="726" y2="329" style="stroke:#bbb;stroke-width:1;"/>
   <line x1="684" y1="58" x2="736" y2="329" style="stroke:#bbb;stroke-width:1;"/>
   <line x1="686.5" y1="58" x2="690.03553390593" y2="61.535533905933" style="stroke:#bbb;stroke-width:2;"/>
   <line x1="686.5" y1="58" x2="690.03553390593" y2="54.464466094067" style="stroke:#bbb;stroke-width:2;"/>
   <line x1="731" y1="329" x2="734.53553390593" y2="332.53553390593" style="stroke:#bbb;stroke-width:2;"/>
   <line x1="731" y1="329" x2="734.53553390593" y2="325.46446609407" style="stroke:#bbb;stroke-width:2;"/>
   <line x1="694" y1="78" x2="684" y2="78" style="stroke:#333;stroke-width:1;"/>
   <line x1="565" y1="46" x2="555" y2="46" style="stroke:#333;stroke-width:1;"/>
   <line x1="684" y1="78" x2="565" y2="46" style="stroke:#333;stroke-width:1;"/>
   <line x1="686.5" y1="78" x2="690.03553390593" y2="81.535533905933" style="stroke:#333;stroke-width:2;"/>
   <line x1="686.5" y1="78" x2="690.03553390593" y2="74.464466094067" style="stroke:#333;stroke-width:2;"/>
   <line x1="560" y1="46" x2="563.53553390593" y2="49.535533905933" style="stroke:#333;stroke-width:2;"/>
   <line x1="560" y1="46" x2="563.53553390593" y2="42.464466094067" style="stroke:#333;stroke-width:2;"/>
   <line x1="145" y1="548" x2="155" y2="548" style="stroke:#0b0;stroke-width:1;"/>
   <line x1="625" y1="329" x2="635" y2="329" style="stroke:#0b0;stroke-width:1;"/>
   <line x1="155" y1="548" x2="625" y2="329" style="stroke:#0b0;stroke-width:1;"/>
   <line x1="152.5" y1="548" x2="148.96446609407" y2="551.53553390593" style="stroke:#0b0;stroke-width:2;"/>
   <line x1="152.5" y1="548" x2="148.96446609407" y2="544.46446609407" style="stroke:#0b0;stroke-width:2;"/>
   <line x1="630" y1="329" x2="626.46446609407" y2="332.53553390593" style="stroke:#0b0;stroke-width:2;"/>
   <line x1="630" y1="329" x2="626.46446609407" y2="325.46446609407" style="stroke:#0b0;stroke-width:2;"/>
   <line x1="279" y1="271" x2="269" y2="271" style="stroke:#0b0;stroke-width:1;"/>
   <line x1="269" y1="251" x2="279" y2="251" style="stroke:#0b0;stroke-width:1;"/>
   <line x1="269" y1="271" x2="269" y2="251" style="stroke:#0b0;stroke-width:1;"/>
   <line x1="271.5" y1="271" x2="275.03553390593" y2="274.53553390593" style="stroke:#0b0;stroke-width:2;"/>
   <line x1="271.5" y1="271" x2="275.03553390593" y2="267.46446609407" style="stroke:#0b0;stroke-width:2;"/>
   <line x1="274" y1="251" x2="270.46446609407" y2="254.53553390593" style="stroke:#0b0;stroke-width:2;"/>
   <line x1="274" y1="251" x2="270.46446609407" y2="247.46446609407" style="stroke:#0b0;stroke-width:2;"/>
   <line x1="334" y1="648" x2="344" y2="648" style="stroke:#333;stroke-width:1;"/>
   <line x1="625" y1="329" x2="635" y2="329" style="stroke:#333;stroke-width:1;"/>
   <line x1="344" y1="648" x2="625" y2="329" style="stroke:#333;stroke-width:1;"/>
   <line x1="341.5" y1="648" x2="337.96446609407" y2="651.53553390593" style="stroke:#333;stroke-width:2;"/>
   <line x1="341.5" y1="648" x2="337.96446609407" y2="644.46446609407" style="stroke:#333;stroke-width:2;"/>
   <line x1="630" y1="329" x2="626.46446609407" y2="332.53553390593" style="stroke:#333;stroke-width:2;"/>
   <line x1="630" y1="329" x2="626.46446609407" y2="325.46446609407" style="stroke:#333;stroke-width:2;"/>
   <line x1="256" y1="628" x2="246" y2="628" style="stroke:#cb0;stroke-width:1;"/>
   <line x1="269" y1="251" x2="279" y2="251" style="stroke:#cb0;stroke-width:1;"/>
   <line x1="246" y1="628" x2="269" y2="251" style="stroke:#cb0;stroke-width:1;"/>
   <line x1="248.5" y1="628" x2="252.03553390593" y2="631.53553390593" style="stroke:#cb0;stroke-width:2;"/>
   <line x1="248.5" y1="628" x2="252.03553390593" y2="624.46446609407" style="stroke:#cb0;stroke-width:2;"/>
   <line x1="274" y1="251" x2="270.46446609407" y2="254.53553390593" style="stroke:#cb0;stroke-width:2;"/>
   <line x1="274" y1="251" x2="270.46446609407" y2="247.46446609407" style="stroke:#cb0;stroke-width:2;"/>
   <rect width="88" height="20" x="51" y="27" style="fill:#007;stroke:black;"/>
   <text width="88" height="20" x="56" y="41" style="fill:#fff;" font-family="Arial" font-size="16px"> image</text>
   <rect width="88" height="20" x="51" y="47" style="fill:#aea;stroke:black;"/>
   <text width="88" height="20" x="56" y="61" style="fill:black;" font-family="Arial" font-size="16px">id</text>
   <rect width="88" height="20" x="51" y="67" style="fill:none;stroke:black;"/>
   <text width="88" height="20" x="56" y="81" style="fill:black;" font-family="Arial" font-size="16px">recipe_id</text>
   <rect width="88" height="20" x="51" y="87" style="fill:none;stroke:black;"/>
   <text width="88" height="20" x="56" y="101" style="fill:black;" font-family="Arial" font-size="16px">step_id</text>
   <rect width="88" height="20" x="51" y="107" style="fill:none;stroke:black;"/>
   <text width="88" height="20" x="56" y="121" style="fill:black;" font-family="Arial" font-size="16px">path</text>
   <rect width="88" height="20" x="51" y="127" style="fill:none;stroke:black;"/>
   <text width="88" height="20" x="56" y="141" style="fill:black;" font-family="Arial" font-size="16px">size</text>
   <rect width="88" height="20" x="51" y="147" style="fill:none;stroke:black;"/>
   <text width="88" height="20" x="56" y="161" style="fill:black;" font-family="Arial" font-size="16px">description</text>
   <rect width="88" height="20" x="51" y="167" style="fill:none;stroke:black;"/>
   <text width="88" height="20" x="56" y="181" style="fill:black;" font-family="Arial" font-size="16px">priority</text>
   <rect width="88" height="20" x="51" y="187" style="fill:none;stroke:black;"/>
   <text width="88" height="20" x="56" y="201" style="fill:black;" font-family="Arial" font-size="16px">created_at</text>
   <rect width="88" height="20" x="51" y="207" style="fill:none;stroke:black;"/>
   <text width="88" height="20" x="56" y="221" style="fill:black;" font-family="Arial" font-size="16px">updated_at</text>
   <rect width="88" height="20" x="963" y="649" style="fill:#007;stroke:black;"/>
   <text width="88" height="20" x="968" y="663" style="fill:#fff;" font-family="Arial" font-size="16px"> ingredient</text>
   <rect width="88" height="20" x="963" y="669" style="fill:#aea;stroke:black;"/>
   <text width="88" height="20" x="968" y="683" style="fill:black;" font-family="Arial" font-size="16px">id</text>
   <rect width="88" height="20" x="963" y="689" style="fill:none;stroke:black;"/>
   <text width="88" height="20" x="968" y="703" style="fill:black;" font-family="Arial" font-size="16px">vegan</text>
   <rect width="88" height="20" x="963" y="709" style="fill:none;stroke:black;"/>
   <text width="88" height="20" x="968" y="723" style="fill:black;" font-family="Arial" font-size="16px">vegetarian</text>
   <rect width="88" height="20" x="963" y="729" style="fill:none;stroke:black;"/>
   <text width="88" height="20" x="968" y="743" style="fill:black;" font-family="Arial" font-size="16px">dairy_free</text>
   <rect width="88" height="20" x="963" y="749" style="fill:none;stroke:black;"/>
   <text width="88" height="20" x="968" y="763" style="fill:black;" font-family="Arial" font-size="16px">gluten_free</text>
   <rect width="88" height="20" x="963" y="769" style="fill:none;stroke:black;"/>
   <text width="88" height="20" x="968" y="783" style="fill:black;" font-family="Arial" font-size="16px">name</text>
   <rect width="88" height="20" x="963" y="789" style="fill:none;stroke:black;"/>
   <text width="88" height="20" x="968" y="803" style="fill:black;" font-family="Arial" font-size="16px">slug</text>
   <rect width="88" height="20" x="963" y="809" style="fill:none;stroke:black;"/>
   <text width="88" height="20" x="968" y="823" style="fill:black;" font-family="Arial" font-size="16px">description</text>
   <rect width="88" height="20" x="963" y="829" style="fill:none;stroke:black;"/>
   <text width="88" height="20" x="968" y="843" style="fill:black;" font-family="Arial" font-size="16px">created_at</text>
   <rect width="88" height="20" x="963" y="849" style="fill:none;stroke:black;"/>
   <text width="88" height="20" x="968" y="863" style="fill:black;" font-family="Arial" font-size="16px">updated_at</text>
   <rect width="128" height="20" x="1003" y="48" style="fill:#007;stroke:black;"/>
   <text width="128" height="20" x="1008" y="62" style="fill:#fff;" font-family="Arial" font-size="16px"> ingredient_group</text>
   <rect width="128" height="20" x="1003" y="68" style="fill:#aea;stroke:black;"/>
   <text width="128" height="20" x="1008" y="82" style="fill:black;" font-family="Arial" font-size="16px">id</text>
   <rect width="128" height="20" x="1003" y="88" style="fill:none;stroke:black;"/>
   <text width="128" height="20" x="1008" y="102" style="fill:black;" font-family="Arial" font-size="16px">name</text>
   <rect width="128" height="20" x="1003" y="108" style="fill:none;stroke:black;"/>
   <text width="128" height="20" x="1008" y="122" style="fill:black;" font-family="Arial" font-size="16px">slug</text>
   <rect width="128" height="20" x="1003" y="128" style="fill:none;stroke:black;"/>
   <text width="128" height="20" x="1008" y="142" style="fill:black;" font-family="Arial" font-size="16px">priority</text>
   <rect width="91" height="20" x="635" y="299" style="fill:#007;stroke:black;"/>
   <text width="91" height="20" x="640" y="313" style="fill:#fff;" font-family="Arial" font-size="16px"> recipe</text>
   <rect width="91" height="20" x="635" y="319" style="fill:#aea;stroke:black;"/>
   <text width="91" height="20" x="640" y="333" style="fill:black;" font-family="Arial" font-size="16px">id</text>
   <rect width="91" height="20" x="635" y="339" style="fill:none;stroke:black;"/>
   <text width="91" height="20" x="640" y="353" style="fill:black;" font-family="Arial" font-size="16px">user_id</text>
   <rect width="91" height="20" x="635" y="359" style="fill:none;stroke:black;"/>
   <text width="91" height="20" x="640" y="373" style="fill:black;" font-family="Arial" font-size="16px">draft</text>
   <rect width="91" height="20" x="635" y="379" style="fill:none;stroke:black;"/>
   <text width="91" height="20" x="640" y="393" style="fill:black;" font-family="Arial" font-size="16px">cooking</text>
   <rect width="91" height="20" x="635" y="399" style="fill:none;stroke:black;"/>
   <text width="91" height="20" x="640" y="413" style="fill:black;" font-family="Arial" font-size="16px">break</text>
   <rect width="91" height="20" x="635" y="419" style="fill:none;stroke:black;"/>
   <text width="91" height="20" x="640" y="433" style="fill:black;" font-family="Arial" font-size="16px">preparation</text>
   <rect width="91" height="20" x="635" y="439" style="fill:none;stroke:black;"/>
   <text width="91" height="20" x="640" y="453" style="fill:black;" font-family="Arial" font-size="16px">name</text>
   <rect width="91" height="20" x="635" y="459" style="fill:none;stroke:black;"/>
   <text width="91" height="20" x="640" y="473" style="fill:black;" font-family="Arial" font-size="16px">slug</text>
   <rect width="91" height="20" x="635" y="479" style="fill:none;stroke:black;"/>
   <text width="91" height="20" x="640" y="493" style="fill:black;" font-family="Arial" font-size="16px">description</text>
   <rect width="91" height="20" x="635" y="499" style="fill:none;stroke:black;"/>
   <text width="91" height="20" x="640" y="513" style="fill:black;" font-family="Arial" font-size="16px">created_at</text>
   <rect width="91" height="20" x="635" y="519" style="fill:none;stroke:black;"/>
   <text width="91" height="20" x="640" y="533" style="fill:black;" font-family="Arial" font-size="16px">updated_at</text>
   <rect width="158" height="20" x="530" y="683" style="fill:#007;stroke:black;"/>
   <text width="158" height="20" x="535" y="697" style="fill:#fff;" font-family="Arial" font-size="16px"> recipe_has_ingredient</text>
   <rect width="158" height="20" x="530" y="703" style="fill:#aea;stroke:black;"/>
   <text width="158" height="20" x="535" y="717" style="fill:black;" font-family="Arial" font-size="16px">id</text>
   <rect width="158" height="20" x="530" y="723" style="fill:none;stroke:black;"/>
   <text width="158" height="20" x="535" y="737" style="fill:black;" font-family="Arial" font-size="16px">recipe_id</text>
   <rect width="158" height="20" x="530" y="743" style="fill:none;stroke:black;"/>
   <text width="158" height="20" x="535" y="757" style="fill:black;" font-family="Arial" font-size="16px">ingredient_id</text>
   <rect width="158" height="20" x="530" y="763" style="fill:none;stroke:black;"/>
   <text width="158" height="20" x="535" y="777" style="fill:black;" font-family="Arial" font-size="16px">ingredient_group_id</text>
   <rect width="158" height="20" x="530" y="783" style="fill:none;stroke:black;"/>
   <text width="158" height="20" x="535" y="797" style="fill:black;" font-family="Arial" font-size="16px">unit_id</text>
   <rect width="158" height="20" x="530" y="803" style="fill:none;stroke:black;"/>
   <text width="158" height="20" x="535" y="817" style="fill:black;" font-family="Arial" font-size="16px">quantity</text>
   <rect width="158" height="20" x="530" y="823" style="fill:none;stroke:black;"/>
   <text width="158" height="20" x="535" y="837" style="fill:black;" font-family="Arial" font-size="16px">optional</text>
   <rect width="138" height="20" x="694" y="8" style="fill:#007;stroke:black;"/>
   <text width="138" height="20" x="699" y="22" style="fill:#fff;" font-family="Arial" font-size="16px"> recipe_has_source</text>
   <rect width="138" height="20" x="694" y="28" style="fill:#aea;stroke:black;"/>
   <text width="138" height="20" x="699" y="42" style="fill:black;" font-family="Arial" font-size="16px">id</text>
   <rect width="138" height="20" x="694" y="48" style="fill:none;stroke:black;"/>
   <text width="138" height="20" x="699" y="62" style="fill:black;" font-family="Arial" font-size="16px">recipe_id</text>
   <rect width="138" height="20" x="694" y="68" style="fill:none;stroke:black;"/>
   <text width="138" height="20" x="699" y="82" style="fill:black;" font-family="Arial" font-size="16px">source_id</text>
   <rect width="138" height="20" x="694" y="88" style="fill:none;stroke:black;"/>
   <text width="138" height="20" x="699" y="102" style="fill:black;" font-family="Arial" font-size="16px">url</text>
   <rect width="88" height="20" x="467" y="16" style="fill:#007;stroke:black;"/>
   <text width="88" height="20" x="472" y="30" style="fill:#fff;" font-family="Arial" font-size="16px"> source</text>
   <rect width="88" height="20" x="467" y="36" style="fill:#aea;stroke:black;"/>
   <text width="88" height="20" x="472" y="50" style="fill:black;" font-family="Arial" font-size="16px">id</text>
   <rect width="88" height="20" x="467" y="56" style="fill:none;stroke:black;"/>
   <text width="88" height="20" x="472" y="70" style="fill:black;" font-family="Arial" font-size="16px">url</text>
   <rect width="88" height="20" x="467" y="76" style="fill:none;stroke:black;"/>
   <text width="88" height="20" x="472" y="90" style="fill:black;" font-family="Arial" font-size="16px">name</text>
   <rect width="88" height="20" x="467" y="96" style="fill:none;stroke:black;"/>
   <text width="88" height="20" x="472" y="110" style="fill:black;" font-family="Arial" font-size="16px">slug</text>
   <rect width="88" height="20" x="467" y="116" style="fill:none;stroke:black;"/>
   <text width="88" height="20" x="472" y="130" style="fill:black;" font-family="Arial" font-size="16px">description</text>
   <rect width="88" height="20" x="467" y="136" style="fill:none;stroke:black;"/>
   <text width="88" height="20" x="472" y="150" style="fill:black;" font-family="Arial" font-size="16px">created_at</text>
   <rect width="88" height="20" x="467" y="156" style="fill:none;stroke:black;"/>
   <text width="88" height="20" x="472" y="170" style="fill:black;" font-family="Arial" font-size="16px">updated_at</text>
   <rect width="86" height="20" x="59" y="498" style="fill:#007;stroke:black;"/>
   <text width="86" height="20" x="64" y="512" style="fill:#fff;" font-family="Arial" font-size="16px"> step</text>
   <rect width="86" height="20" x="59" y="518" style="fill:#aea;stroke:black;"/>
   <text width="86" height="20" x="64" y="532" style="fill:black;" font-family="Arial" font-size="16px">id</text>
   <rect width="86" height="20" x="59" y="538" style="fill:none;stroke:black;"/>
   <text width="86" height="20" x="64" y="552" style="fill:black;" font-family="Arial" font-size="16px">recipe_id</text>
   <rect width="86" height="20" x="59" y="558" style="fill:none;stroke:black;"/>
   <text width="86" height="20" x="64" y="572" style="fill:black;" font-family="Arial" font-size="16px">content</text>
   <rect width="86" height="20" x="59" y="578" style="fill:none;stroke:black;"/>
   <text width="86" height="20" x="64" y="592" style="fill:black;" font-family="Arial" font-size="16px">priority</text>
   <rect width="86" height="20" x="59" y="598" style="fill:none;stroke:black;"/>
   <text width="86" height="20" x="64" y="612" style="fill:black;" font-family="Arial" font-size="16px">created_at</text>
   <rect width="86" height="20" x="59" y="618" style="fill:none;stroke:black;"/>
   <text width="86" height="20" x="64" y="632" style="fill:black;" font-family="Arial" font-size="16px">updated_at</text>
   <rect width="88" height="20" x="279" y="221" style="fill:#007;stroke:black;"/>
   <text width="88" height="20" x="284" y="235" style="fill:#fff;" font-family="Arial" font-size="16px"> tag</text>
   <rect width="88" height="20" x="279" y="241" style="fill:#aea;stroke:black;"/>
   <text width="88" height="20" x="284" y="255" style="fill:black;" font-family="Arial" font-size="16px">id</text>
   <rect width="88" height="20" x="279" y="261" style="fill:none;stroke:black;"/>
   <text width="88" height="20" x="284" y="275" style="fill:black;" font-family="Arial" font-size="16px">parent_id</text>
   <rect width="88" height="20" x="279" y="281" style="fill:none;stroke:black;"/>
   <text width="88" height="20" x="284" y="295" style="fill:black;" font-family="Arial" font-size="16px">menu</text>
   <rect width="88" height="20" x="279" y="301" style="fill:none;stroke:black;"/>
   <text width="88" height="20" x="284" y="315" style="fill:black;" font-family="Arial" font-size="16px">name</text>
   <rect width="88" height="20" x="279" y="321" style="fill:none;stroke:black;"/>
   <text width="88" height="20" x="284" y="335" style="fill:black;" font-family="Arial" font-size="16px">slug</text>
   <rect width="88" height="20" x="279" y="341" style="fill:none;stroke:black;"/>
   <text width="88" height="20" x="284" y="355" style="fill:black;" font-family="Arial" font-size="16px">description</text>
   <rect width="78" height="20" x="256" y="598" style="fill:#007;stroke:black;"/>
   <text width="78" height="20" x="261" y="612" style="fill:#fff;" font-family="Arial" font-size="16px"> tag_recipe</text>
   <rect width="78" height="20" x="256" y="618" style="fill:#aea;stroke:black;"/>
   <text width="78" height="20" x="261" y="632" style="fill:black;" font-family="Arial" font-size="16px">tag_id</text>
   <rect width="78" height="20" x="256" y="638" style="fill:#aea;stroke:black;"/>
   <text width="78" height="20" x="261" y="652" style="fill:black;" font-family="Arial" font-size="16px">recipe_id</text>
   <rect width="66" height="20" x="1087" y="424" style="fill:#007;stroke:black;"/>
   <text width="66" height="20" x="1092" y="438" style="fill:#fff;" font-family="Arial" font-size="16px"> unit</text>
   <rect width="66" height="20" x="1087" y="444" style="fill:#aea;stroke:black;"/>
   <text width="66" height="20" x="1092" y="458" style="fill:black;" font-family="Arial" font-size="16px">id</text>
   <rect width="66" height="20" x="1087" y="464" style="fill:none;stroke:black;"/>
   <text width="66" height="20" x="1092" y="478" style="fill:black;" font-family="Arial" font-size="16px">singular</text>
   <rect width="66" height="20" x="1087" y="484" style="fill:none;stroke:black;"/>
   <text width="66" height="20" x="1092" y="498" style="fill:black;" font-family="Arial" font-size="16px">plural</text>
   <rect width="78" height="20" x="1081" y="245" style="fill:#007;stroke:black;"/>
   <text width="78" height="20" x="1086" y="259" style="fill:#fff;" font-family="Arial" font-size="16px"> user</text>
   <rect width="78" height="20" x="1081" y="265" style="fill:#aea;stroke:black;"/>
   <text width="78" height="20" x="1086" y="279" style="fill:black;" font-family="Arial" font-size="16px">id</text>
   <rect width="78" height="20" x="1081" y="285" style="fill:none;stroke:black;"/>
   <text width="78" height="20" x="1086" y="299" style="fill:black;" font-family="Arial" font-size="16px">email</text>
   <rect width="78" height="20" x="1081" y="305" style="fill:none;stroke:black;"/>
   <text width="78" height="20" x="1086" y="319" style="fill:black;" font-family="Arial" font-size="16px">roles</text>
   <rect width="78" height="20" x="1081" y="325" style="fill:none;stroke:black;"/>
   <text width="78" height="20" x="1086" y="339" style="fill:black;" font-family="Arial" font-size="16px">password</text>
</svg>
